{"accessors":[{"bufferView":0,"byteOffset":0,"componentType":5126,"count":36,"max":[7.5,0.5,7.5],"min":[-7.5,-0.5,-7.5],"normalized":false,"type":"VEC3"},{"bufferView":1,"byteOffset":0,"componentType":5126,"count":36,"max":[1.0,0.0,1.0,1.0],"min":[-1.0,-0.0000152592547237873,-1.0,1.0],"normalized":false,"type":"VEC4"},{"bufferView":2,"byteOffset":0,"componentType":5126,"count":36,"max":[1.0,1.0,1.0],"min":[-1.0,-1.0,-1.0],"normalized":false,"type":"VEC3"},{"bufferView":3,"byteOffset":0,"componentType":5126,"count":36,"max":[1.0,1.0],"min":[0.0,0.0],"normalized":false,"type":"VEC2"},{"bufferView":4,"byteOffset":0,"componentType":5123,"count":36,"max":[35.0],"min":[0.0],"normalized":false,"type":"SCALAR"},{"bufferView":5,"byteOffset":0,"componentType":5126,"count":36,"max":[7.5,0.5,7.5],"min":[-7.5,-0.5,-7.5],"normalized":false,"type":"VEC3"},{"bufferView":6,"byteOffset":0,"componentType":5126,"count":36,"max":[1.0,0.0,1.0,1.0],"min":[-1.0,-0.0000152592547237873,-1.0,1.0],"normalized":false,"type":"VEC4"},{"bufferView":7,"byteOffset":0,"componentType":5126,"count":36,"max":[1.0,1.0,1.0],"min":[-1.0,-1.0,-1.0],"normalized":false,"type":"VEC3"},{"bufferView":8,"byteOffset":0,"componentType":5126,"count":36,"max":[1.0,1.0],"min":[0.0,0.0],"normalized":false,"type":"VEC2"},{"bufferView":9,"byteOffset":0,"componentType":5123,"count":36,"max":[35.0],"min":[0.0],"normalized":false,"type":"SCALAR"},{"bufferView":10,"byteOffset":0,"componentType":5126,"count":24,"max":[0.5,0.5,0.5],"min":[-0.5,-0.5,-0.5],"normalized":false,"type":"VEC3"},{"bufferView":11,"byteOffset":0,"componentType":5126,"count":24,"max":[1.0,0.0,1.0,1.0],"min":[-1.0,-0.0000152592547237873,-1.0,1.0],"normalized":false,"type":"VEC4"},{"bufferView":12,"byteOffset":0,"componentType":5126,"count":24,"max":[1.0,1.0,1.0],"min":[-1.0,-1.0,-1.0],"normalized":false,"type":"VEC3"},{"bufferView":13,"byteOffset":0,"componentType":5126,"count":24,"max":[1.0,1.0],"min":[0.0,0.0],"normalized":false,"type":"VEC2"},{"bufferView":14,"byteOffset":0,"componentType":5123,"count":36,"max":[23.0],"min":[0.0],"normalized":false,"type":"SCALAR"},{"bufferView":15,"byteOffset":0,"componentType":5126,"count":24,"max":[0.5,0.5,0.5],"min":[-0.5,-0.5,-0.5],"normalized":false,"type":"VEC3"},{"bufferView":16,"byteOffset":0,"componentType":5126,"count":24,"max":[1.0,0.0,1.0,1.0],"min":[-1.0,-0.0000152592547237873,-1.0,1.0],"normalized":false,"type":"VEC4"},{"bufferView":17,"byteOffset":0,"componentType":5126,"count":24,"max":[1.0,1.0,1.0],"min":[-1.0,-1.0,-1.0],"normalized":false,"type":"VEC3"},{"bufferView":18,"byteOffset":0,"componentType":5126,"count":24,"max":[1.0,1.0],"min":[0.0,0.0],"normalized":false,"type":"VEC2"},{"bufferView":19,"byteOffset":0,"componentType":5123,"count":36,"max":[23.0],"min":[0.0],"normalized":false,"type":"SCALAR"},{"bufferView":20,"byteOffset":0,"componentType":5126,"count":4,"max":[1.0,0.0,1.0],"min":[-1.0,0.0,-1.0],"normalized":false,"type":"VEC3"},{"bufferView":21,"byteOffset":0,"componentType":5126,"count":4,"max":[1.0,0.0000152590218931437,-0.0000152586571857682,1.0],"min":[1.0,0.0000152590218931437,-0.0000152586571857682,1.0],"normalized":false,"type":"VEC4"},{"bufferView":22,"byteOffset":0,"componentType":5126,"count":4,"max":[-0.0000152586571857682,1.0,0.0000239175878959941],"min":[-0.0000152586571857682,1.0,0.0000239175878959941],"normalized":false,"type":"VEC3"},{"bufferView":23,"byteOffset":0,"componentType":5126,"count":4,"max":[1.0,1.0],"min":[0.0,0.0],"normalized":false,"type":"VEC2"},{"bufferView":24,"byteOffset":0,"componentType":5123,"count":6,"max":[3.0],"min":[0.0],"normalized":false,"type":"SCALAR"},{"bufferView":25,"byteOffset":0,"componentType":5126,"count":4,"max":[0.5,0.5,0.0],"min":[-0.5,-0.5,0.0],"normalized":false,"type":"VEC3"},{"bufferView":26,"byteOffset":0,"componentType":5126,"count":4,"max":[1.0,0.0,-0.0000152590218931437,1.0],"min":[1.0,0.0,-0.0000152590218931437,1.0],"normalized":false,"type":"VEC4"},{"bufferView":27,"byteOffset":0,"componentType":5126,"count":4,"max":[-0.0000152592547237873,-0.0000152592547237873,1.0],"min":[-0.0000152592547237873,-0.0000152592547237873,1.0],"normalized":false,"type":"VEC3"},{"bufferView":28,"byteOffset":0,"componentType":5126,"count":4,"max":[1.0,1.0],"min":[0.0,0.0],"normalized":false,"type":"VEC2"},{"bufferView":29,"byteOffset":0,"componentType":5123,"count":6,"max":[3.0],"min":[0.0],"normalized":false,"type":"SCALAR"}],"asset":{"generator":"Godot Engine v4.4.1.stable.official@49a5bc7b616bd04689a2c89e89bda41f50241464","version":"2.0"},"bufferViews":[{"buffer":0,"byteLength":432,"byteOffset":0,"byteStride":12,"target":34962},{"buffer":0,"byteLength":576,"byteOffset":432,"byteStride":16,"target":34962},{"buffer":0,"byteLength":432,"byteOffset":1008,"byteStride":12,"target":34962},{"buffer":0,"byteLength":288,"byteOffset":1440,"byteStride":8,"target":34962},{"buffer":0,"byteLength":72,"byteOffset":1728,"target":34963},{"buffer":0,"byteLength":432,"byteOffset":1800,"byteStride":12,"target":34962},{"buffer":0,"byteLength":576,"byteOffset":2232,"byteStride":16,"target":34962},{"buffer":0,"byteLength":432,"byteOffset":2808,"byteStride":12,"target":34962},{"buffer":0,"byteLength":288,"byteOffset":3240,"byteStride":8,"target":34962},{"buffer":0,"byteLength":72,"byteOffset":3528,"target":34963},{"buffer":0,"byteLength":288,"byteOffset":3600,"byteStride":12,"target":34962},{"buffer":0,"byteLength":384,"byteOffset":3888,"byteStride":16,"target":34962},{"buffer":0,"byteLength":288,"byteOffset":4272,"byteStride":12,"target":34962},{"buffer":0,"byteLength":192,"byteOffset":4560,"byteStride":8,"target":34962},{"buffer":0,"byteLength":72,"byteOffset":4752,"target":34963},{"buffer":0,"byteLength":288,"byteOffset":4824,"byteStride":12,"target":34962},{"buffer":0,"byteLength":384,"byteOffset":5112,"byteStride":16,"target":34962},{"buffer":0,"byteLength":288,"byteOffset":5496,"byteStride":12,"target":34962},{"buffer":0,"byteLength":192,"byteOffset":5784,"byteStride":8,"target":34962},{"buffer":0,"byteLength":72,"byteOffset":5976,"target":34963},{"buffer":0,"byteLength":48,"byteOffset":6048,"byteStride":12,"target":34962},{"buffer":0,"byteLength":64,"byteOffset":6096,"byteStride":16,"target":34962},{"buffer":0,"byteLength":48,"byteOffset":6160,"byteStride":12,"target":34962},{"buffer":0,"byteLength":32,"byteOffset":6208,"byteStride":8,"target":34962},{"buffer":0,"byteLength":12,"byteOffset":6240,"target":34963},{"buffer":0,"byteLength":48,"byteOffset":6252,"byteStride":12,"target":34962},{"buffer":0,"byteLength":64,"byteOffset":6300,"byteStride":16,"target":34962},{"buffer":0,"byteLength":48,"byteOffset":6364,"byteStride":12,"target":34962},{"buffer":0,"byteLength":32,"byteOffset":6412,"byteStride":8,"target":34962},{"buffer":0,"byteLength":12,"byteOffset":6444,"target":34963}],"buffers":[{"byteLength":6456,"uri":"main0.bin"}],"cameras":[{"perspective":{"yfov":1.57079637050629,"zfar":1000.0,"znear":0.00999999977648258},"type":"perspective"}],"extensions":{"KHR_lights_punctual":{"lights":[{"intensity":0.0149999996647239,"type":"directional"}]},"OMI_physics_shape":{"shapes":[{"capsule":{"height":2.0,"radius":0.5},"type":"capsule"},{"box":{"size":[4.08887004852295,1.71107995510101,1.3115199804306]},"type":"box"},{"box":{"size":[1.22876000404358,0.53320300579071,1.0]},"type":"box"},{"box":{"size":[0.518554985523224,0.0253906007856131,0.682617008686066]},"type":"box"},{"box":{"size":[1.0,0.0393065996468067,0.340820014476776]},"type":"box"}]}},"extensionsRequired":["KHR_texture_transform"],"extensionsUsed":["GODOT_single_root","KHR_lights_punctual","KHR_texture_transform","OMI_physics_body","OMI_physics_shape"],"images":[{"uri":"textures%2F_albedo000.png"},{"uri":"textures%2FMaterial_001_albedo.png"},{"uri":"textures%2F_albedo002.png"}],"materials":[{"extensions":{},"pbrMetallicRoughness":{"baseColorFactor":[1.0,1.0,1.0,1.0],"baseColorTexture":{"extensions":{"KHR_texture_transform":{"scale":[0.699999988079071,0.699999988079071]}},"index":0},"metallicFactor":0.0,"roughnessFactor":1.0}},{},{},{},{"doubleSided":true,"extensions":{},"name":"Material_001","pbrMetallicRoughness":{"baseColorFactor":[1.0,1.0,1.0,1.0],"baseColorTexture":{"index":1},"metallicFactor":0.0,"roughnessFactor":0.5}},{"alphaMode":"BLEND","extensions":{},"pbrMetallicRoughness":{"baseColorFactor":[1.0,1.0,1.0,1.0],"baseColorTexture":{"index":2},"metallicFactor":0.0,"roughnessFactor":1.0}}],"meshes":[{"extras":{"targetNames":[]},"primitives":[{"attributes":{"NORMAL":2,"POSITION":0,"TANGENT":1,"TEXCOORD_0":3},"indices":4,"material":0,"mode":4}]},{"extras":{"targetNames":[]},"primitives":[{"attributes":{"NORMAL":7,"POSITION":5,"TANGENT":6,"TEXCOORD_0":8},"indices":9,"material":1,"mode":4}]},{"extras":{"targetNames":[]},"primitives":[{"attributes":{"NORMAL":12,"POSITION":10,"TANGENT":11,"TEXCOORD_0":13},"indices":14,"material":2,"mode":4}]},{"extras":{"targetNames":[]},"primitives":[{"attributes":{"NORMAL":17,"POSITION":15,"TANGENT":16,"TEXCOORD_0":18},"indices":19,"material":3,"mode":4}]},{"extras":{"targetNames":[]},"primitives":[{"attributes":{"NORMAL":22,"POSITION":20,"TANGENT":21,"TEXCOORD_0":23},"indices":24,"material":4,"mode":4}]},{"extras":{"targetNames":[]},"primitives":[{"attributes":{"NORMAL":27,"POSITION":25,"TANGENT":26,"TEXCOORD_0":28},"indices":29,"material":5,"mode":4}]}],"nodes":[{"children":[1,2,3,4,5,24,28,44,65],"name":"Main"},{"name":"WorldEnvironment"},{"extensions":{"KHR_lights_punctual":{"light":0}},"name":"DirectionalLight3D","rotation":[-0.129409581422806,0.836516261100769,0.482962936162949,0.224143981933594]},{"mesh":0,"name":"Ground2","translation":[0.0,-0.5,0.0]},{"mesh":1,"name":"CSGBakedMeshInstance3D","translation":[0.0,-0.5,0.0]},{"children":[6,11,12,15,17,21],"extensions":{"OMI_physics_body":{"motion":{"type":"kinematic"}}},"name":"PlayerCharacter","translation":[6.55251979827881,1.0,0.0179946999996901]},{"children":[7],"name":"CameraHolder","rotation":[0.0,0.70710676908493,0.0,0.70710676908493],"translation":[0.0,0.550000011920929,0.0]},{"camera":0,"children":[8,9],"name":"Camera"},{"name":"AudioListener3D"},{"children":[10],"name":"PlayerInteract","rotation":[0.0,-0.70710676908493,0.0,0.70710676908493]},{"name":"InteractRay","rotation":[0.0,-0.70710676908493,0.0,0.70710676908493]},{"extensions":{"OMI_physics_body":{"collider":{"shape":0}}},"name":"Hitbox"},{"children":[13,14],"name":"Raycasts"},{"name":"CeilingCheck","translation":[0.0,-0.758087992668152,0.0]},{"name":"FloorCheck"},{"children":[16],"name":"FootstepsSounds","translation":[0.0,-0.86567097902298,0.0]},{"name":"FootstepPlayer"},{"children":[18,19,20],"name":"StateMachine"},{"name":"IdleState"},{"name":"WalkState"},{"name":"InairState"},{"children":[22],"name":"PlayerHUD"},{"children":[23],"name":"Control"},{"name":"Crosshair"},{"children":[25,26,27],"name":"CanvasLayer"},{"name":"TextureRect"},{"name":"Label"},{"name":"Label2"},{"children":[29,32,34,36,39,40],"name":"Radio","rotation":[0.0,0.70710676908493,0.0,0.70710676908493],"translation":[-6.27505016326904,0.000000953673975345737,0.54033899307251]},{"children":[30,31],"name":"Mesh"},{"mesh":2,"name":"MeshInstance3D","scale":[4.0,1.0,1.25],"translation":[0.0,0.5,0.0]},{"mesh":3,"name":"MeshInstance3D2","rotation":[0.0,0.139726147055626,0.0,0.990190148353577],"scale":[1.08000063896179,0.449999988079071,0.56249988079071],"translation":[0.0,1.21770000457764,0.0]},{"children":[33],"extensions":{"OMI_physics_body":{"motion":{"type":"static"}}},"name":"StaticBody3D"},{"extensions":{"OMI_physics_body":{"collider":{"shape":1}}},"name":"CollisionShape3D","translation":[-0.00942325964570045,0.858977019786835,-0.00934315007179976]},{"children":[35],"extensions":{"OMI_physics_body":{"trigger":{"nodes":[35.0]}}},"name":"RadioInteract","translation":[0.0,1.27257001399994,0.0]},{"extensions":{"OMI_physics_body":{"trigger":null}},"name":"CollisionShape3D2"},{"children":[37,38],"name":"RadioTimer"},{"name":"StartRadio","translation":[0.0,1.18809998035431,0.0]},{"name":"CountdownTimer"},{"name":"CamPivot","rotation":[0.0105237374082208,0.263014823198318,-0.00286909099668264,0.964730143547058],"translation":[0.806011974811554,1.23792004585266,1.36834001541138]},{"children":[41],"name":"RadioUI"},{"children":[42,43],"name":"Control2"},{"name":"AllIsWellButton"},{"name":"BackButton"},{"children":[45,47,49],"name":"Scp3034IntroPaper","rotation":[0.0,0.498018592596054,0.0,0.867166340351105],"translation":[-6.15293979644775,1.0039199590683,-0.710932016372681]},{"children":[46],"name":"simple-paper","scale":[0.300000011920929,1.0,0.300000011920929]},{"mesh":4,"name":"Plane","scale":[0.76806628704071,1.0,1.0]},{"children":[48],"extensions":{"OMI_physics_body":{"trigger":{"nodes":[48.0]}}},"name":"InteractArea"},{"extensions":{"OMI_physics_body":{"trigger":null}},"name":"CollisionShape3D3"},{"children":[50],"name":"PaperUI"},{"children":[51,52],"name":"Control3"},{"name":"ExitButton"},{"children":[53],"name":"ScrollContainer"},{"children":[54],"name":"MarginContainer"},{"children":[55,56],"name":"ScpDocument"},{"name":"ColorRect"},{"children":[57],"name":"MarginContainer2"},{"children":[58],"name":"Control4"},{"children":[59,60,61],"name":"VBoxContainer"},{"name":"Head"},{"name":"Border"},{"children":[62,63],"name":"Body"},{"name":"TextBody"},{"children":[64],"name":"site3034"},{"name":"TextBody2"},{"children":[66,67],"name":"DontLetHerFinish","rotation":[0.0,0.740546643733978,0.0,0.672004997730255],"translation":[-5.9857702255249,1.00119996070862,1.89095997810364]},{"mesh":5,"name":"Model","rotation":[-0.70710676908493,0.0,0.0,0.70710676908493],"scale":[1.0,0.392030000686646,1.0]},{"children":[68],"extensions":{"OMI_physics_body":{"trigger":{"nodes":[68.0]}}},"name":"InteractSpeak"},{"extensions":{"OMI_physics_body":{"trigger":null}},"name":"CollisionShape3D4"}],"samplers":[{"magFilter":9729,"minFilter":9729,"wrapS":10497,"wrapT":10497},{"magFilter":9728,"minFilter":9986,"wrapS":10497,"wrapT":10497},{"magFilter":9728,"minFilter":9728,"wrapS":10497,"wrapT":10497}],"scene":0,"scenes":[{"nodes":[0]}],"textures":[{"sampler":0,"source":0},{"sampler":1,"source":1},{"sampler":2,"source":2}]}