{"accessors":[{"bufferView":0,"byteOffset":0,"componentType":5126,"count":24,"max":[0.5,0.5,0.5],"min":[-0.5,-0.5,-0.5],"normalized":false,"type":"VEC3"},{"bufferView":1,"byteOffset":0,"componentType":5126,"count":24,"max":[1.0,0.0,1.0,1.0],"min":[-1.0,-0.0000152592547237873,-1.0,1.0],"normalized":false,"type":"VEC4"},{"bufferView":2,"byteOffset":0,"componentType":5126,"count":24,"max":[1.0,1.0,1.0],"min":[-1.0,-1.0,-1.0],"normalized":false,"type":"VEC3"},{"bufferView":3,"byteOffset":0,"componentType":5126,"count":24,"max":[1.0,1.0],"min":[0.0,0.0],"normalized":false,"type":"VEC2"},{"bufferView":4,"byteOffset":0,"componentType":5123,"count":36,"max":[23.0],"min":[0.0],"normalized":false,"type":"SCALAR"},{"bufferView":5,"byteOffset":0,"componentType":5126,"count":24,"max":[0.5,0.5,0.5],"min":[-0.5,-0.5,-0.5],"normalized":false,"type":"VEC3"},{"bufferView":6,"byteOffset":0,"componentType":5126,"count":24,"max":[1.0,0.0,1.0,1.0],"min":[-1.0,-0.0000152592547237873,-1.0,1.0],"normalized":false,"type":"VEC4"},{"bufferView":7,"byteOffset":0,"componentType":5126,"count":24,"max":[1.0,1.0,1.0],"min":[-1.0,-1.0,-1.0],"normalized":false,"type":"VEC3"},{"bufferView":8,"byteOffset":0,"componentType":5126,"count":24,"max":[1.0,1.0],"min":[0.0,0.0],"normalized":false,"type":"VEC2"},{"bufferView":9,"byteOffset":0,"componentType":5123,"count":36,"max":[23.0],"min":[0.0],"normalized":false,"type":"SCALAR"},{"bufferView":10,"byteOffset":0,"componentType":5126,"count":4,"max":[0.5,0.5,0.0],"min":[-0.5,-0.5,0.0],"normalized":false,"type":"VEC3"},{"bufferView":11,"byteOffset":0,"componentType":5126,"count":4,"max":[1.0,0.0,-0.0000152590218931437,1.0],"min":[1.0,0.0,-0.0000152590218931437,1.0],"normalized":false,"type":"VEC4"},{"bufferView":12,"byteOffset":0,"componentType":5126,"count":4,"max":[-0.0000152592547237873,-0.0000152592547237873,1.0],"min":[-0.0000152592547237873,-0.0000152592547237873,1.0],"normalized":false,"type":"VEC3"},{"bufferView":13,"byteOffset":0,"componentType":5126,"count":4,"max":[1.0,1.0],"min":[0.0,0.0],"normalized":false,"type":"VEC2"},{"bufferView":14,"byteOffset":0,"componentType":5123,"count":6,"max":[3.0],"min":[0.0],"normalized":false,"type":"SCALAR"}],"asset":{"generator":"Godot Engine v4.4.1.stable.official@49a5bc7b616bd04689a2c89e89bda41f50241464","version":"2.0"},"bufferViews":[{"buffer":0,"byteLength":288,"byteOffset":0,"byteStride":12,"target":34962},{"buffer":0,"byteLength":384,"byteOffset":288,"byteStride":16,"target":34962},{"buffer":0,"byteLength":288,"byteOffset":672,"byteStride":12,"target":34962},{"buffer":0,"byteLength":192,"byteOffset":960,"byteStride":8,"target":34962},{"buffer":0,"byteLength":72,"byteOffset":1152,"target":34963},{"buffer":0,"byteLength":288,"byteOffset":1224,"byteStride":12,"target":34962},{"buffer":0,"byteLength":384,"byteOffset":1512,"byteStride":16,"target":34962},{"buffer":0,"byteLength":288,"byteOffset":1896,"byteStride":12,"target":34962},{"buffer":0,"byteLength":192,"byteOffset":2184,"byteStride":8,"target":34962},{"buffer":0,"byteLength":72,"byteOffset":2376,"target":34963},{"buffer":0,"byteLength":48,"byteOffset":2448,"byteStride":12,"target":34962},{"buffer":0,"byteLength":64,"byteOffset":2496,"byteStride":16,"target":34962},{"buffer":0,"byteLength":48,"byteOffset":2560,"byteStride":12,"target":34962},{"buffer":0,"byteLength":32,"byteOffset":2608,"byteStride":8,"target":34962},{"buffer":0,"byteLength":12,"byteOffset":2640,"target":34963}],"buffers":[{"byteLength":2652,"uri":"cabinet0.bin"}],"extensions":{"OMI_physics_shape":{"shapes":[{"box":{"size":[2.53539991378784,3.12012004852295,1.07324004173279]},"type":"box"},{"box":{"size":[1.046630859375,1.049072265625,0.060791015625]},"type":"box"},{"box":{"size":[0.530273020267487,0.471679985523224,0.265625]},"type":"box"}]}},"extensionsUsed":["GODOT_single_root","OMI_physics_body","OMI_physics_shape"],"images":[{"uri":"textures%2F_albedo000.png"}],"materials":[{},{},{"extensions":{},"pbrMetallicRoughness":{"baseColorFactor":[1.0,1.0,1.0,1.0],"baseColorTexture":{"index":0},"metallicFactor":0.0,"roughnessFactor":1.0}}],"meshes":[{"extras":{"targetNames":[]},"primitives":[{"attributes":{"NORMAL":2,"POSITION":0,"TANGENT":1,"TEXCOORD_0":3},"indices":4,"material":0,"mode":4}]},{"extras":{"targetNames":[]},"primitives":[{"attributes":{"NORMAL":7,"POSITION":5,"TANGENT":6,"TEXCOORD_0":8},"indices":9,"material":1,"mode":4}]},{"extras":{"targetNames":[]},"primitives":[{"attributes":{"NORMAL":12,"POSITION":10,"TANGENT":11,"TEXCOORD_0":13},"indices":14,"material":2,"mode":4}]}],"nodes":[{"children":[1,2,4,6,42],"name":"Cabinet"},{"name":"WorldEnvironment"},{"children":[3],"name":"MeshPivot","scale":[2.45649003982544,3.06238007545471,1.01192998886108]},{"mesh":0,"name":"MeshInstance3D","translation":[0.0,0.5,0.5]},{"children":[5],"extensions":{"OMI_physics_body":{"motion":{"type":"static"}}},"name":"StaticBody3D"},{"extensions":{"OMI_physics_body":{"collider":{"shape":0}}},"name":"CollisionShape3D","translation":[0.0,1.56006002426147,0.5]},{"children":[7,9,12,14,39],"name":"Lock","translation":[0.0,1.55695998668671,1.01098001003265]},{"children":[8],"name":"MeshPivot2","scale":[0.518480002880096,0.457800000905991,0.242506995797157]},{"mesh":1,"name":"MeshInstance3D2","translation":[0.0,0.0,0.5]},{"children":[10],"mesh":2,"name":"MeshInstance3D3","scale":[0.349999994039536,0.280079007148743,0.349999994039536],"translation":[0.0,0.0,0.246803000569344]},{"children":[11],"extensions":{"OMI_physics_body":{"trigger":{"nodes":[11.0]}}},"name":"Area3D"},{"extensions":{"OMI_physics_body":{"trigger":null}},"name":"CollisionShape3D2","translation":[0.0,0.0,0.0013425350189209]},{"children":[13],"extensions":{"OMI_physics_body":{"motion":{"type":"static"}}},"name":"StaticBody3D2"},{"extensions":{"OMI_physics_body":{"collider":{"shape":2}}},"name":"CollisionShape3D3","translation":[0.0,0.0,0.122021794319153]},{"children":[15],"name":"SubViewport"},{"children":[16],"name":"LockUI"},{"children":[17],"name":"Pivot"},{"children":[18,23,28,33,38],"name":"HBoxContainer"},{"children":[19,21,22],"name":"LockButton"},{"children":[20],"name":"PanelContainer"},{"name":"LockNum"},{"name":"UpButton"},{"name":"DownButton"},{"children":[24,26,27],"name":"LockButton2"},{"children":[25],"name":"PanelContainer2"},{"name":"LockNum2"},{"name":"UpButton2"},{"name":"DownButton2"},{"children":[29,31,32],"name":"LockButton3"},{"children":[30],"name":"PanelContainer3"},{"name":"LockNum3"},{"name":"UpButton3"},{"name":"DownButton3"},{"children":[34,36,37],"name":"LockButton4"},{"children":[35],"name":"PanelContainer4"},{"name":"LockNum4"},{"name":"UpButton4"},{"name":"DownButton4"},{"name":"EnterButton"},{"children":[40,41],"extensions":{"OMI_physics_body":{"trigger":{"nodes":[40.0]}}},"name":"LockInteract"},{"extensions":{"OMI_physics_body":{"trigger":null}},"name":"CollisionShape3D4","translation":[0.0,0.0,0.127070903778076]},{"name":"CameraPivot","translation":[0.0,0.0,0.507504224777222]},{"children":[43],"name":"UI"},{"name":"BackButton"}],"samplers":[{"magFilter":9729,"minFilter":9987,"wrapS":10497,"wrapT":10497}],"scene":0,"scenes":[{"nodes":[0]}],"textures":[{"sampler":0,"source":0}]}